<svg width="43" height="35" viewBox="0 0 43 35" fill="none" xmlns="http://www.w3.org/2000/svg">
<path d="M24.499 24.5272H7.05875C4.65327 24.5272 2.70325 26.4772 2.70325 28.8827C2.70325 31.2881 4.65327 33.2382 7.05875 33.2382H24.499C26.9045 33.2382 28.8545 31.2881 28.8545 28.8827C28.8545 26.4772 26.9045 24.5272 24.499 24.5272Z" stroke="#020202" stroke-width="3.5" stroke-miterlimit="10"/>
<path d="M2.70325 14.0667H23.6243L28.8363 19.2969V24.5272H7.9335L2.70325 19.2969V14.0667Z" stroke="#020202" stroke-width="3.5" stroke-miterlimit="10"/>
<path d="M41.0462 33.2382H34.0665C32.6808 33.2334 31.3533 32.6808 30.3735 31.701C29.3936 30.7211 28.841 29.3936 28.8362 28.0079V19.3698H32.3352L41.0462 29.7574V33.2382Z" stroke="#020202" stroke-width="3.5" stroke-miterlimit="10"/>
<path d="M18.3757 14.0667H4.43445V1.85669H14.895L18.3757 14.0667Z" stroke="#020202" stroke-width="3.5" stroke-miterlimit="10"/>
<path d="M0.953735 1.85669H20.1253" stroke="#020202" stroke-width="3.5" stroke-miterlimit="10"/>
<path d="M27.1051 7.08698C26.1802 7.08696 25.293 7.4531 24.6373 8.10535C23.9817 8.7576 23.6109 9.64291 23.6061 10.5677V14.0667" stroke="#020202" stroke-width="3.5" stroke-miterlimit="10"/>
</svg>
